<svg width="26" height="22" viewBox="0 0 26 22" fill="none" xmlns="http://www.w3.org/2000/svg">
<path d="M1 21H25M14.7137 21V1.86956C14.7137 1.63894 14.6234 1.41776 14.4626 1.25469C14.3019 1.09161 14.0838 1 13.8565 1H3.5708C3.34347 1 3.12545 1.09161 2.96471 1.25469C2.80396 1.41776 2.71366 1.63894 2.71366 1.86956V21M23.2851 21V8.82609C23.2851 8.59546 23.1948 8.37429 23.034 8.21121C22.8733 8.04814 22.6553 7.95652 22.4279 7.95652H14.7137M6.14223 5.34783H9.5708M7.85652 12.3043H11.2851M6.14223 16.6522H9.5708M18.1422 16.6522H19.8565M18.1422 12.3043H19.8565" stroke="url(#paint0_linear_693_24334)" stroke-width="2" stroke-linecap="round" stroke-linejoin="round"/>
<defs>
<linearGradient id="paint0_linear_693_24334" x1="-6.56522" y1="-3.34783" x2="20.6614" y2="26.9002" gradientUnits="userSpaceOnUse">
<stop stop-color="#001C54"/>
<stop offset="1" stop-color="#103A75"/>
</linearGradient>
</defs>
</svg>
