<svg width="17" height="18" viewBox="0 0 17 18" fill="none" xmlns="http://www.w3.org/2000/svg">
<path d="M5 1V3.4" stroke="url(#paint0_linear_693_26944)" stroke-width="1.5" stroke-miterlimit="10" stroke-linecap="round" stroke-linejoin="round"/>
<path d="M11.4004 1V3.4" stroke="url(#paint1_linear_693_26944)" stroke-width="1.5" stroke-miterlimit="10" stroke-linecap="round" stroke-linejoin="round"/>
<path d="M1.40039 6.67188H15.0004" stroke="url(#paint2_linear_693_26944)" stroke-width="1.5" stroke-miterlimit="10" stroke-linecap="round" stroke-linejoin="round"/>
<path d="M15.4 5.39922V13.7992C15.4 16.1992 15 16.9992 12.2 16.9992H4.2C1.4 16.9992 1 16.1992 1 13.7992V5.39922C1 2.99922 1.4 2.19922 4.2 2.19922H12.2C15 2.19922 15.4 2.99922 15.4 5.39922Z" stroke="url(#paint3_linear_693_26944)" stroke-width="1.5" stroke-miterlimit="10" stroke-linecap="round" stroke-linejoin="round"/>
<path d="M11.1554 10.359H11.1626" stroke="url(#paint4_linear_693_26944)" stroke-width="1.6" stroke-linecap="round" stroke-linejoin="round"/>
<path d="M11.1554 12.7594H11.1626" stroke="url(#paint5_linear_693_26944)" stroke-width="1.6" stroke-linecap="round" stroke-linejoin="round"/>
<path d="M8.19639 10.359H8.20357" stroke="url(#paint6_linear_693_26944)" stroke-width="1.6" stroke-linecap="round" stroke-linejoin="round"/>
<path d="M8.19639 12.7594H8.20357" stroke="url(#paint7_linear_693_26944)" stroke-width="1.6" stroke-linecap="round" stroke-linejoin="round"/>
<path d="M5.23545 10.359H5.24264" stroke="url(#paint8_linear_693_26944)" stroke-width="1.6" stroke-linecap="round" stroke-linejoin="round"/>
<path d="M5.23545 12.7594H5.24264" stroke="url(#paint9_linear_693_26944)" stroke-width="1.6" stroke-linecap="round" stroke-linejoin="round"/>
<defs>
<linearGradient id="paint0_linear_693_26944" x1="4.68478" y1="0.478261" x2="6.8911" y2="1.32936" gradientUnits="userSpaceOnUse">
<stop stop-color="#001C54"/>
<stop offset="1" stop-color="#103A75"/>
</linearGradient>
<linearGradient id="paint1_linear_693_26944" x1="11.0852" y1="0.478261" x2="13.2915" y2="1.32936" gradientUnits="userSpaceOnUse">
<stop stop-color="#001C54"/>
<stop offset="1" stop-color="#103A75"/>
</linearGradient>
<linearGradient id="paint2_linear_693_26944" x1="-2.88657" y1="6.45448" x2="-2.67049" y2="9.17508" gradientUnits="userSpaceOnUse">
<stop stop-color="#001C54"/>
<stop offset="1" stop-color="#103A75"/>
</linearGradient>
<linearGradient id="paint3_linear_693_26944" x1="-3.53913" y1="-1.01817" x2="16.6102" y2="17.132" gradientUnits="userSpaceOnUse">
<stop stop-color="#001C54"/>
<stop offset="1" stop-color="#103A75"/>
</linearGradient>
<linearGradient id="paint4_linear_693_26944" x1="10.5081" y1="9.78507" x2="11.5998" y2="10.7937" gradientUnits="userSpaceOnUse">
<stop stop-color="#001C54"/>
<stop offset="1" stop-color="#103A75"/>
</linearGradient>
<linearGradient id="paint5_linear_693_26944" x1="10.5081" y1="12.1855" x2="11.5998" y2="13.1941" gradientUnits="userSpaceOnUse">
<stop stop-color="#001C54"/>
<stop offset="1" stop-color="#103A75"/>
</linearGradient>
<linearGradient id="paint6_linear_693_26944" x1="7.54911" y1="9.78507" x2="8.6408" y2="10.7937" gradientUnits="userSpaceOnUse">
<stop stop-color="#001C54"/>
<stop offset="1" stop-color="#103A75"/>
</linearGradient>
<linearGradient id="paint7_linear_693_26944" x1="7.54911" y1="12.1855" x2="8.6408" y2="13.1941" gradientUnits="userSpaceOnUse">
<stop stop-color="#001C54"/>
<stop offset="1" stop-color="#103A75"/>
</linearGradient>
<linearGradient id="paint8_linear_693_26944" x1="4.58818" y1="9.78507" x2="5.67986" y2="10.7937" gradientUnits="userSpaceOnUse">
<stop stop-color="#001C54"/>
<stop offset="1" stop-color="#103A75"/>
</linearGradient>
<linearGradient id="paint9_linear_693_26944" x1="4.58818" y1="12.1855" x2="5.67986" y2="13.1941" gradientUnits="userSpaceOnUse">
<stop stop-color="#001C54"/>
<stop offset="1" stop-color="#103A75"/>
</linearGradient>
</defs>
</svg>
