<svg width="160" height="72" viewBox="0 0 160 72" fill="none" xmlns="http://www.w3.org/2000/svg">
<mask id="mask0_584_6097" style="mask-type:luminance" maskUnits="userSpaceOnUse" x="39" y="38" width="26" height="25">
<path d="M56.9468 38.5063V56.6176H50.7117C47.8317 56.6176 47.1192 55.7863 47.1192 53.9454V38.5063H39.6074V54.8658C39.6074 60.2399 42.4577 62.526 50.7117 62.526H64.3992V38.4766H56.9468V38.5063Z" fill="white"/>
</mask>
<g mask="url(#mask0_584_6097)">
<path d="M33.0469 60.5742L41.6572 31.7148L71.0213 40.4736L62.3813 69.333L33.0469 60.5742Z" fill="url(#paint0_linear_584_6097)"/>
</g>
<path d="M119.95 62.5276H106.263C98.0085 62.5276 95.1582 60.2414 95.1582 54.8674V38.5078H102.67V53.947C102.67 55.7878 103.383 56.6192 106.263 56.6192H112.498V38.5078H119.98L119.95 62.5276Z" fill="white"/>
<mask id="mask1_584_6097" style="mask-type:luminance" maskUnits="userSpaceOnUse" x="68" y="38" width="26" height="25">
<path d="M85.5093 38.4766L78.4726 49.1949H75.5332V38.4766H68.0215V62.526H75.5332V52.9953H78.4726L85.1827 62.526H93.1101L85.0936 50.7982L93.1101 38.4766H85.5093Z" fill="white"/>
</mask>
<g mask="url(#mask1_584_6097)">
<path d="M61.4297 60.5735L70.0697 31.625L99.701 40.4728L91.061 69.4213L61.4297 60.5735Z" fill="url(#paint1_linear_584_6097)"/>
</g>
<path d="M123.604 38.4766H137.558C145.812 38.4766 148.662 40.9706 148.662 46.3743V62.526H141.359C141.24 62.526 141.151 62.437 141.151 62.3182V47.2947C141.151 45.3648 140.349 44.6225 137.558 44.6225H131.115V62.526H123.604V38.4766Z" fill="white"/>
<path d="M152.105 45.6023H159.617V62.526H152.105V45.6023ZM152.373 38.4766H157.064C158.311 38.4766 159.32 39.0407 159.32 40.0799V43.9693H152.402L152.373 38.4766Z" fill="white"/>
<mask id="mask2_584_6097" style="mask-type:luminance" maskUnits="userSpaceOnUse" x="7" y="25" width="45" height="46">
<path d="M14.4599 56.4455L10.4219 54.3672C10.3329 54.3375 10.2735 54.2484 10.2438 54.1593C9.05617 49.2604 9.47184 44.1535 11.6096 39.5812C11.6096 39.5515 11.6393 39.5515 11.6393 39.5218C11.6986 39.4921 11.758 39.4921 11.7877 39.5515C13.0941 41.5704 14.5786 43.441 16.2413 45.163C16.3007 45.2224 16.3007 45.3115 16.271 45.4006C14.6083 48.5775 13.8067 52.7639 14.638 56.297C14.6677 56.4158 14.638 56.4752 14.549 56.4752C14.5193 56.4752 14.4896 56.4752 14.4599 56.4455ZM21.8232 47.9836L18.4681 44.9255C18.4087 44.8661 18.4087 44.8067 18.4384 44.7474C20.1605 42.194 22.2982 39.9968 24.8219 38.1857C24.8813 38.156 24.9407 38.156 24.9704 38.2154C25.8314 39.6109 26.8706 41.0657 28.0879 42.1643C28.0879 42.1643 28.0879 42.1643 28.1176 42.194C28.1473 42.2236 28.1176 42.283 28.0879 42.283C25.5642 43.6191 23.5749 45.5193 22.0607 47.9243C22.0607 47.9243 22.0607 47.954 22.031 47.954C22.0013 47.9837 21.9716 48.0133 21.9123 48.0133C21.8826 48.0133 21.8529 48.0133 21.8232 47.9836ZM17.1617 43.5597C15.4991 41.8377 13.9254 40.0265 12.5003 38.0966C12.4706 38.0373 12.4706 37.9779 12.5003 37.9185C14.8755 33.7618 18.2009 30.8224 22.5061 28.7144H22.5358C22.5655 28.7144 22.5951 28.7441 22.5951 28.7738C22.5654 31.5053 23.0999 34.1181 24.1984 36.5824C24.2578 36.7012 24.1984 36.8199 24.1094 36.8793C21.4075 38.6311 19.151 40.8579 17.3696 43.53C17.3696 43.53 17.3696 43.53 17.3399 43.5597C17.3102 43.5894 17.2805 43.5894 17.2508 43.5894C17.2211 43.6191 17.1914 43.5894 17.1617 43.5597ZM25.7127 35.7511C24.7626 33.3461 24.1687 30.8224 23.9312 28.2393C23.9609 28.2096 23.9906 28.1502 24.0203 28.1206C27.316 26.8735 30.7601 26.5469 34.2636 26.8735C34.3527 26.8735 34.3824 26.9329 34.323 27.022C33.5807 28.7441 33.6104 30.7036 33.4619 32.5742C33.4619 32.6039 33.4619 32.6335 33.4619 32.6335C33.4619 32.6929 33.4026 32.7523 33.3432 32.782C30.7601 33.643 28.2364 34.415 25.8908 35.8104C25.8908 35.8104 25.8908 35.8104 25.8611 35.8104H25.8314C25.772 35.8401 25.7424 35.8105 25.7127 35.7511ZM27.9098 25.1812C12.2628 26.9032 3.11803 43.53 9.70937 57.6628C11.4611 61.3742 13.9848 64.4026 17.2805 66.6888C20.3386 68.8265 24.4063 70.5189 28.177 70.6674C26.3065 70.3408 24.4953 69.8063 22.7733 69.0641C22.6545 69.0047 22.7436 68.975 22.8327 68.9453C22.892 68.9156 22.9811 68.9156 23.0108 68.9156C23.1889 68.8859 23.3671 68.8859 23.5749 68.8562C23.9312 68.7968 24.2875 68.7078 24.6438 68.589C25.3267 68.3515 25.9799 67.9952 26.5737 67.5498C27.5238 66.8076 28.8896 65.234 29.6021 64.2839C28.563 65.2043 26.6925 66.57 25.3861 67.0154C24.6438 67.2826 23.8718 67.4905 23.0702 67.6389C22.3873 67.7874 21.6747 67.8764 20.9621 67.9358C20.7543 67.9655 20.6059 67.9358 20.5465 67.9061C16.1226 65.2933 12.9753 61.6117 11.1048 56.8612C11.0455 56.7424 11.1048 56.7127 11.2236 56.7721C12.4706 57.5144 13.7473 58.1676 15.1131 58.7317C15.2912 58.7911 15.41 58.9395 15.4991 59.1177C15.8257 59.8896 16.2116 60.6022 16.657 61.2851C16.8054 61.4929 16.8351 61.4632 16.7461 61.2554L16.0335 59.3255C15.9741 59.2067 16.0632 59.1177 16.1819 59.1771C18.8838 60.1865 21.7935 60.8694 24.6735 60.9288C24.8516 60.9288 24.8813 60.8694 24.7032 60.81C21.6747 59.6521 18.676 58.4051 15.7069 57.069C15.6475 57.0393 15.5881 56.9799 15.5881 56.8909C15.1725 53.2686 15.796 49.8542 17.4586 46.6773C17.4586 46.6773 17.4586 46.6476 17.4883 46.6476C17.5477 46.5882 17.6071 46.5882 17.6665 46.6476L21.17 49.6166C21.2294 49.6463 21.2294 49.7354 21.1997 49.7651C20.0714 52.17 19.5964 54.6344 19.7745 57.1284C19.8042 57.5144 19.8636 57.3956 19.923 56.8018C20.1902 54.575 20.8731 52.4076 22.031 50.4777L22.0904 50.3589C22.1201 50.2995 22.2092 50.2995 22.2389 50.3292C25.0595 52.2888 28.1176 53.803 31.4133 54.8719C31.8289 54.9907 31.8586 54.9313 31.4727 54.7234C28.5333 53.0311 25.7424 51.1309 23.0999 49.0228C23.0108 48.9337 22.9811 48.815 23.0405 48.6962C24.5547 46.3804 26.4846 44.4801 28.7708 42.9362C28.8302 42.9065 28.8896 42.9065 28.9489 42.9362C29.6021 43.4707 30.3147 43.9457 31.057 44.3614C31.2648 44.4801 31.2648 44.4504 31.1461 44.2723L29.6615 42.5206C29.6615 42.5206 29.6615 42.4909 29.6318 42.4909C29.6022 42.4315 29.6318 42.3424 29.6912 42.3127L32.2149 41.036C32.6306 40.8282 32.6009 40.7688 32.1555 40.8579C31.1758 41.0657 30.196 41.3626 29.2756 41.7783C29.2162 41.808 29.1271 41.7783 29.0677 41.7189C28.0285 40.3828 27.1675 38.928 26.4252 37.3841C26.3659 37.295 26.4252 37.1465 26.5143 37.0872C28.5036 35.8698 30.5226 34.801 32.6009 33.9102C32.8681 33.7915 33.165 33.7024 33.4619 33.6133C33.5213 33.5836 33.5807 33.6133 33.5807 33.7024C33.6401 33.9993 33.6995 34.2962 33.7292 34.5931C33.937 36.1964 34.3824 37.5919 35.0949 38.8686C35.3325 39.2843 35.3918 39.2546 35.3028 38.7795C34.9465 36.9684 34.7387 35.1573 34.7683 33.3164C34.7683 33.168 34.8574 33.0492 35.0059 32.9898C35.956 32.6335 36.9358 32.3069 37.9156 31.9507C37.9156 31.9507 37.9156 31.9507 37.9156 31.921L37.8859 31.8616C37.8859 31.8616 37.8859 31.8319 37.8562 31.8319L34.9465 32.396H34.9168C34.8574 32.396 34.798 32.3366 34.798 32.2773C34.8871 30.5552 35.1543 28.8628 35.5997 27.2001C35.6294 27.1408 35.6888 27.1111 35.7481 27.1111C42.1613 28.4472 47.0603 31.8616 50.5044 37.3247C50.9498 38.0373 51.3358 38.928 51.7514 39.6999C51.8702 39.9375 51.8999 39.9375 51.7811 39.6702C48.2776 30.7927 39.8455 25.0624 30.4632 25.0624C29.6022 25.0327 28.7708 25.0921 27.9098 25.1812Z" fill="white"/>
</mask>
<g mask="url(#mask2_584_6097)">
<path d="M51.8713 25.0312H3.11914V70.6362H51.8713V25.0312Z" fill="url(#paint2_linear_584_6097)"/>
</g>
<mask id="mask3_584_6097" style="mask-type:luminance" maskUnits="userSpaceOnUse" x="0" y="0" width="51" height="72">
<path d="M0.0593851 11.0449L12.0247 16.3002V24.3761C11.9951 24.4058 11.9654 24.4355 11.9357 24.4355C4.75052 29.186 0 37.4103 0 46.7629C0 58.4907 7.51176 68.4668 17.9035 72C9.44165 67.5761 3.65196 58.6392 3.65196 48.3365C3.65196 45.6049 4.06763 42.9625 4.8099 40.4684C4.8099 40.4388 4.8099 40.4091 4.83959 40.4091C6.47258 35.035 9.67918 30.3439 13.925 26.9592C18.3489 23.426 23.901 21.2882 29.8986 21.2882C30.5814 21.2882 31.294 21.2586 31.9769 21.2586C36.0742 21.4961 38.9542 22.4165 38.9542 22.4165V16.8049L27.0482 14.4594C36.193 11.8169 40.5872 15.7658 40.5872 15.7658L43.8235 14.0734V19.774C43.8235 19.774 42.1014 20.16 42.8437 21.6445C42.8437 21.6445 43.1109 21.6445 43.1406 22.1196C43.1703 22.5946 43.0219 23.1885 42.814 23.4557C42.6062 23.7526 42.725 24.7027 42.725 24.7027H45.4565C45.4565 24.7027 45.6049 23.7229 45.3674 23.4557C45.1596 23.1588 45.0111 22.5946 45.0408 22.1196C45.0705 21.6445 45.3377 21.6445 45.3377 21.6445C46.08 20.1303 44.3876 19.774 44.3876 19.774V13.7468L50.0882 10.748L25.5637 0L0.0593851 11.0449Z" fill="white"/>
</mask>
<g mask="url(#mask3_584_6097)">
<path d="M50.1195 0H0.03125V72.0297H50.1195V0Z" fill="url(#paint3_linear_584_6097)"/>
</g>
<path d="M42.3983 68.3768H40.1419V69.891H42.6359L42.5468 70.3958H39.6074V66.0312H42.5171V66.5657H40.1419V67.8424H42.3983V68.3768Z" fill="white"/>
<path d="M45.2773 66.0312H46.8213C48.0386 66.0312 48.7512 66.9517 48.7512 68.1393C48.7512 69.5348 47.8901 70.3958 46.8213 70.3958H45.2773V66.0312ZM45.8118 69.891H46.7025C47.712 69.891 48.187 69.1785 48.187 68.169C48.187 67.1595 47.6229 66.5657 46.7619 66.536H45.8118V69.891Z" fill="white"/>
<path d="M51.9602 66.0312V68.4956C51.9602 69.6238 52.554 69.9504 53.1182 69.9504C53.801 69.9504 54.2167 69.5644 54.2167 68.4956V66.0312H54.7511V68.4956C54.7511 69.9207 54.0979 70.4849 53.0885 70.4849C52.079 70.4849 51.4258 69.9207 51.4258 68.555V66.0312H51.9602Z" fill="white"/>
<path d="M61.1035 69.1261C60.8957 69.8684 60.4206 70.4919 59.3518 70.4919C58.1048 70.4919 57.4219 69.4824 57.4219 68.2354C57.4219 66.9884 58.1641 65.9492 59.3815 65.9492C60.48 65.9492 60.9848 66.6321 61.1332 67.3447H60.5988C60.4503 66.8993 60.1237 66.454 59.3815 66.454C58.5204 66.454 57.986 67.1962 57.986 68.2057C57.986 69.1855 58.4907 69.9872 59.3815 69.9872C60.094 69.9872 60.3612 69.6309 60.5691 69.1261H61.1035Z" fill="white"/>
<path d="M64.34 69.0894L63.8649 70.3958H63.3008L64.9338 66.0312H65.587L67.2793 70.3958H66.6855L66.1808 69.0894H64.34ZM65.9729 68.555C65.4979 67.3376 65.2901 66.7735 65.201 66.4766C65.1119 66.7735 64.8744 67.5158 64.4884 68.555H65.9729Z" fill="white"/>
<path d="M70.1302 66.5657H68.7051V66.0312H72.1195V66.5657H70.6647V70.3958H70.1302V66.5657Z" fill="white"/>
<path d="M75.1165 66.0312H74.582V70.3958H75.1165V66.0312Z" fill="white"/>
<path d="M81.8282 68.2057C81.8282 69.423 81.1156 70.4919 79.8389 70.4919C78.6216 70.4919 77.8496 69.4824 77.8496 68.2057C77.8496 66.9884 78.6216 65.9492 79.8389 65.9492C81.0562 65.9492 81.8282 67.0181 81.8282 68.2057ZM78.4137 68.2057C78.4137 69.1558 78.9185 69.9872 79.8389 69.9872C80.7593 69.9872 81.2344 69.1855 81.2344 68.2354C81.2344 67.3447 80.7296 66.4837 79.8092 66.4837C78.9482 66.4837 78.4137 67.2853 78.4137 68.2057Z" fill="white"/>
<path d="M84.5293 70.3958V66.0312H85.1528C86.0138 67.397 87.2015 69.1785 87.439 69.6238C87.4093 69.0597 87.4093 68.3768 87.4093 67.6642V66.0312H87.914V70.3958H87.3202C86.7561 69.5347 85.2716 67.1892 85.0043 66.6548C85.034 67.2189 85.034 67.8424 85.034 68.6143V70.3958H84.5293Z" fill="white"/>
<path d="M91.4181 69.0894L90.943 70.3958H90.3789L92.0119 66.0312H92.6651L94.3575 70.3958H93.7636L93.2589 69.0894H91.4181ZM93.0808 68.555C92.6057 67.3376 92.3979 66.7735 92.3088 66.4766C92.2197 66.7735 91.9822 67.5158 91.5962 68.555H93.0808Z" fill="white"/>
<path d="M96.8203 66.0312H97.3547V69.891H99.6112L99.5518 70.3958H96.8203V66.0312Z" fill="white"/>
<path d="M108.994 69.1261C108.786 69.8684 108.311 70.4919 107.242 70.4919C105.995 70.4919 105.312 69.4824 105.312 68.2354C105.312 66.9884 106.055 65.9492 107.272 65.9492C108.371 65.9492 108.875 66.6321 109.024 67.3447H108.489C108.341 66.8993 108.014 66.454 107.272 66.454C106.411 66.454 105.877 67.1962 105.877 68.2057C105.877 69.1855 106.381 69.9872 107.272 69.9872C107.985 69.9872 108.282 69.6309 108.46 69.1261H108.994Z" fill="white"/>
<path d="M115.348 68.2057C115.348 69.423 114.635 70.4919 113.358 70.4919C112.141 70.4919 111.369 69.4824 111.369 68.2057C111.369 66.9884 112.141 65.9492 113.358 65.9492C114.576 65.9492 115.348 67.0181 115.348 68.2057ZM111.963 68.2057C111.963 69.1558 112.468 69.9872 113.388 69.9872C114.309 69.9872 114.784 69.1855 114.784 68.2354C114.784 67.3447 114.279 66.4837 113.358 66.4837C112.468 66.4837 111.963 67.2853 111.963 68.2057Z" fill="white"/>
<path d="M118.051 70.3958V66.0312H118.674C119.535 67.397 120.723 69.1785 120.96 69.6238C120.931 69.0597 120.931 68.3768 120.931 67.6642V66.0312H121.436V70.3958H120.842C120.278 69.5347 118.793 67.1892 118.526 66.6548C118.556 67.2189 118.556 67.8424 118.556 68.6143V70.3958H118.051Z" fill="white"/>
<path d="M124.642 69.1558C124.79 69.6606 125.117 70.0169 125.859 70.0169C126.601 70.0169 126.898 69.6903 126.898 69.2746C126.898 68.8589 126.691 68.5917 125.711 68.3839C124.582 68.176 124.315 67.7604 124.315 67.1665C124.315 66.3946 124.939 65.9492 125.77 65.9492C126.987 65.9492 127.284 66.6915 127.314 67.1368H126.78C126.691 66.8399 126.542 66.454 125.74 66.454C125.206 66.454 124.85 66.6618 124.85 67.1072C124.85 67.4635 124.998 67.701 125.859 67.8494C127.225 68.1166 127.433 68.5917 127.433 69.2152C127.433 69.8981 126.958 70.4919 125.829 70.4919C124.761 70.4919 124.256 69.9278 124.107 69.1261H124.642V69.1558Z" fill="white"/>
<path d="M130.579 66.0312V68.4956C130.579 69.6238 131.173 69.9504 131.737 69.9504C132.42 69.9504 132.836 69.5644 132.836 68.4956V66.0312H133.37V68.4956C133.37 69.9207 132.717 70.4849 131.708 70.4849C130.698 70.4849 130.045 69.9207 130.045 68.555V66.0312H130.579Z" fill="white"/>
<path d="M136.281 66.0312H136.816V69.891H139.102L139.013 70.3958H136.281V66.0312Z" fill="white"/>
<path d="M141.803 66.5657H140.348V66.0312H143.762V66.5657H142.337V70.3958H141.803V66.5657Z" fill="white"/>
<path d="M146.79 66.0312H146.256V70.3958H146.79V66.0312Z" fill="white"/>
<path d="M149.76 70.3958V66.0312H150.383C151.244 67.397 152.432 69.1785 152.669 69.6238C152.64 69.0597 152.64 68.3768 152.64 67.6642V66.0312H153.144V70.3958H152.551C151.987 69.5347 150.502 67.1892 150.235 66.6548C150.265 67.2189 150.265 67.8424 150.265 68.6143V70.3958H149.76Z" fill="white"/>
<path d="M159.618 70.4028H159.202C159.173 70.2841 159.173 69.9575 159.173 69.7496C158.935 70.2247 158.549 70.4919 157.807 70.4919C156.619 70.4919 155.877 69.6012 155.877 68.2354C155.877 66.9587 156.619 65.9492 157.896 65.9492C159.024 65.9492 159.499 66.6024 159.648 67.2556H159.113C158.965 66.8399 158.638 66.454 157.896 66.454C156.946 66.454 156.441 67.2259 156.441 68.2057C156.441 69.2449 156.946 69.9872 157.866 69.9872C158.668 69.9872 159.113 69.5121 159.113 68.6808V68.562H157.896V68.0573H159.648V70.4028H159.618Z" fill="white"/>
<defs>
<linearGradient id="paint0_linear_584_6097" x1="44.7863" y1="74.7735" x2="55.6141" y2="38.5241" gradientUnits="userSpaceOnUse">
<stop stop-color="#AC2125"/>
<stop offset="1" stop-color="#EA242A"/>
</linearGradient>
<linearGradient id="paint1_linear_584_6097" x1="71.0198" y1="82.4617" x2="81.7191" y2="46.6422" gradientUnits="userSpaceOnUse">
<stop stop-color="#AC2125"/>
<stop offset="1" stop-color="#EA242A"/>
</linearGradient>
<linearGradient id="paint2_linear_584_6097" x1="7.55624" y1="47.8585" x2="51.8453" y2="47.8585" gradientUnits="userSpaceOnUse">
<stop stop-color="#AC2125"/>
<stop offset="1" stop-color="#EA242A"/>
</linearGradient>
<linearGradient id="paint3_linear_584_6097" x1="0.0181851" y1="36.02" x2="50.1084" y2="36.02" gradientUnits="userSpaceOnUse">
<stop stop-color="#AC2125"/>
<stop offset="1" stop-color="#EA242A"/>
</linearGradient>
</defs>
</svg>
