<svg width="111" height="51" viewBox="0 0 111 51" fill="none" xmlns="http://www.w3.org/2000/svg">
<mask id="mask0_533_3225" style="mask-type:luminance" maskUnits="userSpaceOnUse" x="27" y="27" width="18" height="17">
<path d="M39.5451 27.2433V39.8206H35.2152C33.2152 39.8206 32.7204 39.2433 32.7204 37.9649V27.2433H27.5039V38.6041C27.5039 42.3361 29.4833 43.9237 35.2152 43.9237H44.7204V27.2227H39.5451V27.2433Z" fill="white"/>
</mask>
<g mask="url(#mask0_533_3225)">
<path d="M22.9473 42.5647L28.9266 22.5234L49.3184 28.6059L43.3184 48.6472L22.9473 42.5647Z" fill="url(#paint0_linear_533_3225)"/>
</g>
<path d="M83.2985 43.9226H73.7934C68.0614 43.9226 66.082 42.335 66.082 38.603V27.2422H71.2985V37.9638C71.2985 39.2422 71.7934 39.8195 73.7934 39.8195H78.1233V27.2422H83.3192L83.2985 43.9226Z" fill="#293B87"/>
<mask id="mask1_533_3225" style="mask-type:luminance" maskUnits="userSpaceOnUse" x="47" y="27" width="18" height="17">
<path d="M59.3826 27.2227L54.496 34.666H52.4548V27.2227H47.2383V43.9237H52.4548V37.3051H54.496L59.1558 43.9237H64.661L59.094 35.7794L64.661 27.2227H59.3826Z" fill="white"/>
</mask>
<g mask="url(#mask1_533_3225)">
<path d="M42.6602 42.564L48.6602 22.4609L69.2375 28.6053L63.2375 48.7084L42.6602 42.564Z" fill="url(#paint1_linear_533_3225)"/>
</g>
<path d="M85.8359 27.2227H95.5267C101.259 27.2227 103.238 28.9546 103.238 32.7072V43.9237H98.1658C98.0834 43.9237 98.0215 43.8618 98.0215 43.7794V33.3464C98.0215 32.0062 97.4648 31.4907 95.5267 31.4907H91.0524V43.9237H85.8359V27.2227Z" fill="#293B87"/>
<path d="M105.629 32.1711H110.845V43.9237H105.629V32.1711ZM105.814 27.2227H109.072C109.938 27.2227 110.639 27.6144 110.639 28.3361V31.0371H105.835L105.814 27.2227Z" fill="#293B87"/>
<mask id="mask2_533_3225" style="mask-type:luminance" maskUnits="userSpaceOnUse" x="5" y="17" width="32" height="33">
<path d="M10.0403 39.6976L7.23621 38.2543C7.17436 38.2337 7.13312 38.1718 7.1125 38.11C6.28776 34.7079 6.57642 31.1615 8.06095 27.9863C8.06095 27.9657 8.08157 27.9657 8.08157 27.945C8.12281 27.9244 8.16405 27.9244 8.18467 27.9657C9.09188 29.3677 10.1228 30.6667 11.2775 31.8626C11.3187 31.9038 11.3187 31.9657 11.2981 32.0275C10.1434 34.2337 9.58673 37.1409 10.164 39.5945C10.1847 39.677 10.164 39.7182 10.1022 39.7182C10.0816 39.7182 10.061 39.7182 10.0403 39.6976ZM15.1537 33.8213L12.8238 31.6976C12.7826 31.6564 12.7826 31.6151 12.8032 31.5739C13.9991 29.8007 15.4836 28.2749 17.2362 27.0172C17.2774 26.9966 17.3187 26.9966 17.3393 27.0378C17.9372 28.0069 18.6589 29.0172 19.5043 29.7801C19.5043 29.7801 19.5043 29.7801 19.5249 29.8007C19.5455 29.8213 19.5249 29.8626 19.5043 29.8626C17.7517 30.7904 16.3702 32.11 15.3187 33.7801C15.3187 33.7801 15.3187 33.8007 15.2981 33.8007C15.2774 33.8213 15.2568 33.8419 15.2156 33.8419C15.195 33.8419 15.1744 33.8419 15.1537 33.8213ZM11.9166 30.7492C10.762 29.5533 9.6692 28.2956 8.67951 26.9553C8.65889 26.9141 8.65889 26.8729 8.67951 26.8316C10.329 23.945 12.6383 21.9038 15.628 20.4399H15.6486C15.6692 20.4399 15.6898 20.4605 15.6898 20.4811C15.6692 22.378 16.0403 24.1925 16.8032 25.9038C16.8445 25.9863 16.8032 26.0687 16.7414 26.11C14.8651 27.3265 13.2981 28.8729 12.061 30.7285C12.061 30.7285 12.061 30.7285 12.0403 30.7492C12.0197 30.7698 11.9991 30.7698 11.9785 30.7698C11.9579 30.7904 11.9372 30.7698 11.9166 30.7492ZM17.8548 25.3265C17.195 23.6564 16.7826 21.9038 16.6177 20.11C16.6383 20.0894 16.6589 20.0481 16.6795 20.0275C18.9682 19.1615 21.3599 18.9347 23.7929 19.1615C23.8548 19.1615 23.8754 19.2028 23.8342 19.2646C23.3187 20.4605 23.3393 21.8213 23.2362 23.1203C23.2362 23.1409 23.2362 23.1615 23.2362 23.1615C23.2362 23.2028 23.195 23.244 23.1537 23.2646C21.3599 23.8626 19.6073 24.3986 17.9785 25.3677C17.9785 25.3677 17.9785 25.3677 17.9579 25.3677H17.9372C17.896 25.3883 17.8754 25.3677 17.8548 25.3265ZM19.3805 17.9863C8.51456 19.1822 2.16405 30.7285 6.74137 40.543C7.95786 43.1203 9.71044 45.2234 11.9991 46.811C14.1228 48.2955 16.9476 49.4708 19.5661 49.5739C18.2671 49.3471 17.0094 48.976 15.8135 48.4605C15.7311 48.4193 15.7929 48.3986 15.8548 48.378C15.896 48.3574 15.9579 48.3574 15.9785 48.3574C16.1022 48.3368 16.2259 48.3368 16.3702 48.3162C16.6177 48.2749 16.8651 48.2131 17.1125 48.1306C17.5867 47.9657 18.0403 47.7182 18.4527 47.409C19.1125 46.8935 20.061 45.8007 20.5558 45.1409C19.8342 45.7801 18.5352 46.7285 17.628 47.0378C17.1125 47.2234 16.5764 47.3677 16.0197 47.4708C15.5455 47.5739 15.0506 47.6358 14.5558 47.677C14.4115 47.6976 14.3084 47.677 14.2671 47.6564C11.195 45.8419 9.00941 43.2852 7.71044 39.9863C7.66921 39.9038 7.71044 39.8832 7.79292 39.9244C8.65889 40.4399 9.54549 40.8935 10.4939 41.2852C10.6177 41.3265 10.7001 41.4296 10.762 41.5533C10.9888 42.0894 11.2568 42.5842 11.5661 43.0584C11.6692 43.2028 11.6898 43.1821 11.628 43.0378L11.1331 41.6976C11.0919 41.6151 11.1537 41.5533 11.2362 41.5945C13.1125 42.2956 15.1331 42.7698 17.1331 42.811C17.2568 42.811 17.2774 42.7698 17.1537 42.7285C15.0506 41.9244 12.9682 41.0584 10.9063 40.1306C10.8651 40.11 10.8238 40.0687 10.8238 40.0069C10.5352 37.4914 10.9682 35.1203 12.1228 32.9141C12.1228 32.9141 12.1228 32.8935 12.1434 32.8935C12.1847 32.8523 12.2259 32.8523 12.2671 32.8935L14.7001 34.9553C14.7414 34.976 14.7414 35.0378 14.7208 35.0584C13.9372 36.7285 13.6073 38.4399 13.7311 40.1718C13.7517 40.4399 13.7929 40.3574 13.8341 39.945C14.0197 38.3986 14.4939 36.8935 15.2981 35.5533L15.3393 35.4708C15.3599 35.4296 15.4218 35.4296 15.4424 35.4502C17.4012 36.811 19.5249 37.8626 21.8135 38.6048C22.1022 38.6873 22.1228 38.6461 21.8548 38.5017C19.8135 37.3265 17.8754 36.0069 16.0403 34.543C15.9785 34.4811 15.9579 34.3986 15.9991 34.3162C17.0506 32.7079 18.3909 31.3883 19.9785 30.3162C20.0197 30.2955 20.061 30.2955 20.1022 30.3162C20.5558 30.6873 21.0507 31.0172 21.5661 31.3059C21.7104 31.3883 21.7104 31.3677 21.628 31.244L20.597 30.0275C20.597 30.0275 20.597 30.0069 20.5764 30.0069C20.5558 29.9657 20.5764 29.9038 20.6177 29.8832L22.3702 28.9966C22.6589 28.8523 22.6383 28.811 22.329 28.8729C21.6486 29.0172 20.9682 29.2234 20.329 29.512C20.2878 29.5327 20.2259 29.512 20.1847 29.4708C19.463 28.543 18.8651 27.5327 18.3496 26.4605C18.3084 26.3986 18.3496 26.2956 18.4115 26.2543C19.7929 25.409 21.195 24.6667 22.6383 24.0481C22.8238 23.9657 23.03 23.9038 23.2362 23.8419C23.2775 23.8213 23.3187 23.8419 23.3187 23.9038C23.3599 24.11 23.4012 24.3162 23.4218 24.5224C23.5661 25.6358 23.8754 26.6048 24.3702 27.4914C24.5352 27.7801 24.5764 27.7595 24.5146 27.4296C24.2671 26.1718 24.1228 24.9141 24.1434 23.6358C24.1434 23.5327 24.2053 23.4502 24.3084 23.409C24.9682 23.1615 25.6486 22.9347 26.329 22.6873C26.329 22.6873 26.329 22.6873 26.329 22.6667L26.3084 22.6254C26.3084 22.6254 26.3084 22.6048 26.2878 22.6048L24.2671 22.9966H24.2465C24.2053 22.9966 24.164 22.9553 24.164 22.9141C24.2259 21.7182 24.4115 20.543 24.7208 19.3883C24.7414 19.3471 24.7826 19.3265 24.8238 19.3265C29.2775 20.2543 32.6795 22.6254 35.0713 26.4193C35.3805 26.9141 35.6486 27.5327 35.9372 28.0687C36.0197 28.2337 36.0403 28.2337 35.9579 28.0481C33.5249 21.8832 27.6692 17.9038 21.1537 17.9038C20.5558 17.8832 19.9785 17.9244 19.3805 17.9863Z" fill="white"/>
</mask>
<g mask="url(#mask2_533_3225)">
<path d="M36.0197 17.8828H2.16406V49.5529H36.0197V17.8828Z" fill="url(#paint2_linear_533_3225)"/>
</g>
<mask id="mask3_533_3225" style="mask-type:luminance" maskUnits="userSpaceOnUse" x="0" y="0" width="35" height="51">
<path d="M0.0412396 8.1701L8.35051 11.8196V17.4278C8.3299 17.4485 8.30928 17.4691 8.28866 17.4691C3.29897 20.768 0 26.4794 0 32.9742C0 41.1186 5.2165 48.0464 12.433 50.5C6.5567 47.4278 2.53609 41.2216 2.53609 34.067C2.53609 32.1701 2.82474 30.335 3.34021 28.6031C3.34021 28.5825 3.34021 28.5619 3.36083 28.5619C4.49485 24.8299 6.72165 21.5722 9.67011 19.2216C12.7423 16.768 16.5979 15.2835 20.7629 15.2835C21.2371 15.2835 21.732 15.2629 22.2062 15.2629C25.0515 15.4278 27.0515 16.067 27.0515 16.067V12.1701L18.7835 10.5412C25.134 8.70618 28.1856 11.4485 28.1856 11.4485L30.433 10.2732V14.232C30.433 14.232 29.2371 14.5 29.7526 15.5309C29.7526 15.5309 29.9381 15.5309 29.9588 15.8608C29.9794 16.1907 29.8763 16.6031 29.732 16.7887C29.5876 16.9948 29.6701 17.6546 29.6701 17.6546H31.567C31.567 17.6546 31.6701 16.9742 31.5051 16.7887C31.3608 16.5825 31.2577 16.1907 31.2784 15.8608C31.299 15.5309 31.4845 15.5309 31.4845 15.5309C32 14.4794 30.8247 14.232 30.8247 14.232V10.0464L34.7835 7.96392L17.7526 0.5L0.0412396 8.1701Z" fill="white"/>
</mask>
<g mask="url(#mask3_533_3225)">
<path d="M34.805 0.5H0.0214844V50.5206H34.805V0.5Z" fill="url(#paint3_linear_533_3225)"/>
</g>
<path d="M29.442 47.9843H27.875V49.0359H29.607L29.5451 49.3864H27.5039V46.3555H29.5245V46.7266H27.875V47.6132H29.442V47.9843Z" fill="#3D51A2"/>
<path d="M31.4434 46.3555H32.5155C33.3609 46.3555 33.8557 46.9946 33.8557 47.8194C33.8557 48.7885 33.2578 49.3864 32.5155 49.3864H31.4434V46.3555ZM31.8145 49.0359H32.433C33.1341 49.0359 33.464 48.541 33.464 47.84C33.464 47.139 33.0722 46.7266 32.4743 46.706H31.8145V49.0359Z" fill="#3D51A2"/>
<path d="M36.0821 46.3555V48.0668C36.0821 48.8503 36.4944 49.0771 36.8862 49.0771C37.3604 49.0771 37.6491 48.8091 37.6491 48.0668V46.3555H38.0202V48.0668C38.0202 49.0565 37.5666 49.4483 36.8656 49.4483C36.1645 49.4483 35.7109 49.0565 35.7109 48.108V46.3555H36.0821Z" fill="#3D51A2"/>
<path d="M42.4336 48.5031C42.2893 49.0185 41.9594 49.4515 41.2172 49.4515C40.3512 49.4515 39.877 48.7505 39.877 47.8845C39.877 47.0185 40.3924 46.2969 41.2378 46.2969C42.0007 46.2969 42.3512 46.7711 42.4543 47.2659H42.0831C41.98 46.9567 41.7532 46.6474 41.2378 46.6474C40.6398 46.6474 40.2687 47.1629 40.2687 47.8639C40.2687 48.5443 40.6192 49.101 41.2378 49.101C41.7326 49.101 41.9182 48.8536 42.0625 48.5031H42.4336Z" fill="#3D51A2"/>
<path d="M44.6806 48.4792L44.3507 49.3864H43.959L45.093 46.3555H45.5466L46.7219 49.3864H46.3095L45.959 48.4792H44.6806ZM45.8147 48.108C45.4848 47.2627 45.3404 46.8709 45.2786 46.6647C45.2167 46.8709 45.0518 47.3864 44.7837 48.108H45.8147Z" fill="#3D51A2"/>
<path d="M48.7006 46.7266H47.7109V46.3555H50.0821V46.7266H49.0718V49.3864H48.7006V46.7266Z" fill="#3D51A2"/>
<path d="M52.1641 46.3555H51.793V49.3864H52.1641V46.3555Z" fill="#3D51A2"/>
<path d="M56.8254 47.8639C56.8254 48.7092 56.3305 49.4515 55.4439 49.4515C54.5986 49.4515 54.0625 48.7505 54.0625 47.8639C54.0625 47.0185 54.5986 46.2969 55.4439 46.2969C56.2893 46.2969 56.8254 47.0391 56.8254 47.8639ZM54.4543 47.8639C54.4543 48.5237 54.8048 49.101 55.4439 49.101C56.0831 49.101 56.413 48.5443 56.413 47.8845C56.413 47.2659 56.0625 46.668 55.4233 46.668C54.8254 46.668 54.4543 47.2247 54.4543 47.8639Z" fill="#3D51A2"/>
<path d="M58.7012 49.3864V46.3555H59.1342C59.7321 47.3039 60.5568 48.541 60.7218 48.8503C60.7012 48.4586 60.7012 47.9843 60.7012 47.4895V46.3555H61.0517V49.3864H60.6393C60.2476 48.7885 59.2166 47.1596 59.0311 46.7885C59.0517 47.1802 59.0517 47.6132 59.0517 48.1493V49.3864H58.7012Z" fill="#3D51A2"/>
<path d="M63.4853 48.4792L63.1554 49.3864H62.7637L63.8977 46.3555H64.3513L65.5266 49.3864H65.1142L64.7637 48.4792H63.4853ZM64.64 48.108C64.3101 47.2627 64.1657 46.8709 64.1039 46.6647C64.042 46.8709 63.8771 47.3864 63.609 48.108H64.64Z" fill="#3D51A2"/>
<path d="M67.2363 46.3555H67.6075V49.0359H69.1745L69.1332 49.3864H67.2363V46.3555Z" fill="#3D51A2"/>
<path d="M75.6895 48.5031C75.5452 49.0185 75.2153 49.4515 74.473 49.4515C73.607 49.4515 73.1328 48.7505 73.1328 47.8845C73.1328 47.0185 73.6483 46.2969 74.4936 46.2969C75.2565 46.2969 75.607 46.7711 75.7101 47.2659H75.339C75.2359 46.9567 75.0091 46.6474 74.4936 46.6474C73.8957 46.6474 73.5246 47.1629 73.5246 47.8639C73.5246 48.5443 73.8751 49.101 74.4936 49.101C74.9885 49.101 75.1947 48.8536 75.3184 48.5031H75.6895Z" fill="#3D51A2"/>
<path d="M80.1027 47.8639C80.1027 48.7092 79.6079 49.4515 78.7213 49.4515C77.8759 49.4515 77.3398 48.7505 77.3398 47.8639C77.3398 47.0185 77.8759 46.2969 78.7213 46.2969C79.5666 46.2969 80.1027 47.0391 80.1027 47.8639ZM77.7522 47.8639C77.7522 48.5237 78.1027 49.101 78.7419 49.101C79.3811 49.101 79.711 48.5443 79.711 47.8845C79.711 47.2659 79.3605 46.668 78.7213 46.668C78.1027 46.668 77.7522 47.2247 77.7522 47.8639Z" fill="#3D51A2"/>
<path d="M81.9785 49.3864V46.3555H82.4115C83.0094 47.3039 83.8342 48.541 83.9991 48.8503C83.9785 48.4586 83.9785 47.9843 83.9785 47.4895V46.3555H84.329V49.3864H83.9167C83.5249 48.7885 82.494 47.1596 82.3084 46.7885C82.329 47.1802 82.329 47.6132 82.329 48.1493V49.3864H81.9785Z" fill="#3D51A2"/>
<path d="M86.5567 48.5237C86.6598 48.8742 86.8866 49.1216 87.402 49.1216C87.9175 49.1216 88.1237 48.8948 88.1237 48.6062C88.1237 48.3175 87.9794 48.1319 87.299 47.9876C86.5154 47.8433 86.3299 47.5546 86.3299 47.1422C86.3299 46.6062 86.7629 46.2969 87.3402 46.2969C88.1856 46.2969 88.3917 46.8123 88.4123 47.1216H88.0412C87.9794 46.9154 87.8763 46.6474 87.3196 46.6474C86.9484 46.6474 86.701 46.7917 86.701 47.101C86.701 47.3484 86.8041 47.5134 87.402 47.6165C88.3505 47.802 88.4948 48.1319 88.4948 48.5649C88.4948 49.0391 88.1649 49.4515 87.3814 49.4515C86.6392 49.4515 86.2886 49.0598 86.1855 48.5031H86.5567V48.5237Z" fill="#3D51A2"/>
<path d="M90.6797 46.3555V48.0668C90.6797 48.8503 91.0921 49.0771 91.4839 49.0771C91.9581 49.0771 92.2467 48.8091 92.2467 48.0668V46.3555H92.6179V48.0668C92.6179 49.0565 92.1643 49.4483 91.4632 49.4483C90.7622 49.4483 90.3086 49.0565 90.3086 48.108V46.3555H90.6797Z" fill="#3D51A2"/>
<path d="M94.6406 46.3555H95.0118V49.0359H96.5994L96.5375 49.3864H94.6406V46.3555Z" fill="#3D51A2"/>
<path d="M98.4752 46.7266H97.4648V46.3555H99.836V46.7266H98.8463V49.3864H98.4752V46.7266Z" fill="#3D51A2"/>
<path d="M101.938 46.3555H101.566V49.3864H101.938V46.3555Z" fill="#3D51A2"/>
<path d="M104 49.3864V46.3555H104.433C105.031 47.3039 105.856 48.541 106.021 48.8503C106 48.4586 106 47.9843 106 47.4895V46.3555H106.351V49.3864H105.938C105.546 48.7885 104.515 47.1596 104.33 46.7885C104.351 47.1802 104.351 47.6132 104.351 48.1493V49.3864H104Z" fill="#3D51A2"/>
<path d="M110.846 49.3897H110.557C110.537 49.3072 110.537 49.0804 110.537 48.9361C110.372 49.266 110.104 49.4515 109.588 49.4515C108.764 49.4515 108.248 48.833 108.248 47.8845C108.248 46.9979 108.764 46.2969 109.65 46.2969C110.434 46.2969 110.764 46.7505 110.867 47.2041H110.495C110.392 46.9154 110.166 46.6474 109.65 46.6474C108.99 46.6474 108.64 47.1835 108.64 47.8639C108.64 48.5855 108.99 49.101 109.629 49.101C110.186 49.101 110.495 48.7711 110.495 48.1938V48.1113H109.65V47.7608H110.867V49.3897H110.846Z" fill="#3D51A2"/>
<defs>
<linearGradient id="paint0_linear_533_3225" x1="31.0997" y1="52.4253" x2="38.6189" y2="27.2521" gradientUnits="userSpaceOnUse">
<stop stop-color="#AC2125"/>
<stop offset="1" stop-color="#EA242A"/>
</linearGradient>
<linearGradient id="paint1_linear_533_3225" x1="49.3199" y1="57.7642" x2="56.75" y2="32.8896" gradientUnits="userSpaceOnUse">
<stop stop-color="#AC2125"/>
<stop offset="1" stop-color="#EA242A"/>
</linearGradient>
<linearGradient id="paint2_linear_533_3225" x1="5.24538" y1="33.7351" x2="36.0017" y2="33.7351" gradientUnits="userSpaceOnUse">
<stop stop-color="#AC2125"/>
<stop offset="1" stop-color="#EA242A"/>
</linearGradient>
<linearGradient id="paint3_linear_533_3225" x1="0.0124115" y1="25.5139" x2="34.7973" y2="25.5139" gradientUnits="userSpaceOnUse">
<stop stop-color="#AC2125"/>
<stop offset="1" stop-color="#EA242A"/>
</linearGradient>
</defs>
</svg>
