<svg width="170" height="50" viewBox="0 0 170 50" fill="none" xmlns="http://www.w3.org/2000/svg">
<g clip-path="url(#clip0_285_10681)">
<path d="M59.571 23.4759V3.13281H67.0823C68.3342 3.13281 69.4296 3.2893 70.6815 3.75875C72.5593 4.54118 73.6547 6.41901 73.6547 8.29683C73.6547 10.0182 72.7158 11.7395 71.151 12.5219C73.4982 12.8349 75.0631 14.8692 74.9066 17.2165C74.9066 19.8767 73.0288 22.224 70.3685 22.85C69.1167 23.1629 67.8648 23.3194 66.4564 23.3194L59.571 23.4759ZM68.6472 6.57549C68.0213 6.26252 67.3953 6.26252 66.7694 6.26252H63.0137V11.583H66.4564C67.2388 11.583 68.0213 11.4265 68.8037 11.1136C70.0556 10.3311 70.3685 8.76629 69.5861 7.5144C69.2731 7.04495 68.9602 6.73198 68.6472 6.57549ZM69.7426 15.0257C68.9602 14.7127 68.1777 14.7127 67.3953 14.7127H63.0137V20.3462H67.2388C68.1777 20.3462 68.9602 20.1897 69.8991 19.8767C70.838 19.4073 71.4639 18.4684 71.4639 17.373C71.151 16.2776 70.6815 15.3387 69.7426 15.0257Z" fill="#230957"/>
<path d="M98.5357 3.13281H95.093V23.4759H98.5357V3.13281Z" fill="#230957"/>
<path d="M123.887 3.13281H120.444V23.4759H123.887V3.13281Z" fill="#230957"/>
<path d="M135.154 2.97656C137.031 2.97656 139.066 3.28953 140.787 4.07196V7.35815C139.066 6.41924 137.031 5.94978 135.154 5.94978C133.276 5.94978 131.554 6.57573 131.554 8.14058C131.554 12.3657 142.039 10.6443 142.039 17.5297C142.039 21.2854 138.909 23.7891 134.215 23.7891C131.867 23.7891 129.364 23.1632 127.329 21.9113L128.738 19.0946C130.459 20.19 132.337 20.6594 134.215 20.6594C136.249 20.6594 138.283 19.877 138.283 17.9992C138.283 13.6176 127.955 15.4954 127.955 8.61004C127.799 5.01087 130.772 2.97656 135.154 2.97656Z" fill="#230957"/>
<path d="M158.47 23.4759V14.7127H148.611V23.4759H145.012V3.13281H148.611V11.4265H158.47V3.13281H161.912V23.4759H158.47Z" fill="#230957"/>
<path d="M67.239 26.9219C69.1168 26.9219 71.1511 27.2348 72.8724 28.1738L71.777 31.147C70.5252 30.521 68.9603 30.2081 67.5519 30.0516C63.6398 30.0516 61.2925 33.3378 61.2925 37.2499C61.2925 41.162 63.4833 44.6047 67.5519 44.6047C68.9603 44.6047 70.5252 44.2918 71.777 43.5093L72.8724 46.4825C70.9946 47.4215 69.1168 47.7344 67.239 47.7344C61.136 47.7344 57.6934 43.5093 57.6934 37.4064C57.6934 31.7729 61.136 26.9219 67.239 26.9219Z" fill="#230957"/>
<path d="M143.291 26.9219C145.169 26.9219 147.203 27.2348 148.924 28.1738L147.829 31.147C146.577 30.521 145.012 30.2081 143.604 30.0516C139.692 30.0516 137.345 33.3378 137.345 37.2499C137.345 41.162 139.535 44.6047 143.604 44.6047C145.012 44.6047 146.577 44.2918 147.829 43.5093L148.924 46.4825C147.203 47.265 145.169 47.7344 143.291 47.7344C137.188 47.7344 133.745 43.5093 133.745 37.4064C133.745 31.7729 137.345 26.9219 143.291 26.9219Z" fill="#230957"/>
<path d="M92.7462 37.2499C92.7462 43.3528 88.8341 47.7344 83.2006 47.7344C77.5672 47.7344 73.655 43.5093 73.655 37.4064C73.655 31.3035 77.5672 26.9219 83.2006 26.9219C88.8341 26.9219 92.7462 31.147 92.7462 37.2499ZM89.1471 37.2499C89.1471 32.8683 86.6433 30.0516 83.2006 30.0516C79.758 30.0516 77.2542 32.8683 77.2542 37.4064C77.2542 41.9445 79.758 44.7612 83.2006 44.7612C86.6433 44.7612 88.9906 41.788 89.1471 37.2499Z" fill="#230957"/>
<path d="M95.093 39.7534V27.0781H98.5357V39.9099C98.5357 43.3526 100.414 44.6045 103.23 44.6045C106.047 44.6045 107.925 43.3526 107.925 39.9099V27.0781H111.368V39.7534C111.368 45.2304 108.238 47.7342 103.074 47.7342C98.0662 47.7342 95.093 45.3869 95.093 39.7534Z" fill="#230957"/>
<path d="M118.096 32.7116C118.096 33.3375 118.253 34.4329 118.253 35.3719V47.4212H114.497V27.0781H118.253L127.642 40.8488C127.642 40.2229 127.486 39.1275 127.486 38.1886V27.0781H130.928V47.4212H127.799L118.096 32.7116Z" fill="#230957"/>
<path d="M155.184 27.2344H151.741V47.5775H155.184V27.2344Z" fill="#230957"/>
<path d="M158.47 47.421V27.2344H161.913V44.2913H169.737V47.421H158.47Z" fill="#230957"/>
<path d="M117.783 3.13281H101.196V6.26252H107.768V23.4759H111.211V6.26252H117.783V3.13281Z" fill="#230957"/>
<path d="M88.8341 23.4759C85.8608 17.373 85.0784 15.6516 83.8265 15.6516H80.5403V23.4759H77.0977V3.13281H83.983C89.147 3.13281 91.1813 5.94955 91.1813 8.92277C91.3378 11.2701 89.773 13.4608 87.4257 14.0868C88.3646 14.5562 89.3035 16.5906 92.7462 23.3194L88.8341 23.4759ZM84.296 6.26252H80.6968V12.3655H84.1395C86.6433 12.3655 87.7387 11.1136 87.7387 9.23574C87.7387 7.35792 86.6433 6.26252 84.296 6.26252Z" fill="#230957"/>
<path d="M37.6632 23.9489C44.0586 23.9489 49.2431 18.7644 49.2431 12.369C49.2431 5.97357 44.0586 0.789062 37.6632 0.789062C31.2678 0.789062 26.0833 5.97357 26.0833 12.369C26.0833 18.7644 31.2678 23.9489 37.6632 23.9489Z" fill="#230957"/>
<path d="M11.8429 23.9489C18.2383 23.9489 23.4228 18.7644 23.4228 12.369C23.4228 5.97357 18.2383 0.789062 11.8429 0.789062C5.44745 0.789062 0.262939 5.97357 0.262939 12.369C0.262939 18.7644 5.44745 23.9489 11.8429 23.9489Z" fill="#230957"/>
<path d="M37.6632 49.7692C44.0586 49.7692 49.2431 44.5847 49.2431 38.1893C49.2431 31.7939 44.0586 26.6094 37.6632 26.6094C31.2678 26.6094 26.0833 31.7939 26.0833 38.1893C26.0833 44.5847 31.2678 49.7692 37.6632 49.7692Z" fill="#230957"/>
<path d="M11.8429 49.7692C18.2383 49.7692 23.4228 44.5847 23.4228 38.1893C23.4228 31.7939 18.2383 26.6094 11.8429 26.6094C5.44745 26.6094 0.262939 31.7939 0.262939 38.1893C0.262939 44.5847 5.44745 49.7692 11.8429 49.7692Z" fill="#230957"/>
</g>
<defs>
<clipPath id="clip0_285_10681">
<rect width="169.474" height="48.9799" fill="white" transform="translate(0.262939 0.789062)"/>
</clipPath>
</defs>
</svg>
