<svg width="15" height="18" viewBox="0 0 15 18" fill="none" xmlns="http://www.w3.org/2000/svg">
<path d="M7.15385 9.61538C8.51332 9.61538 9.61538 8.51332 9.61538 7.15385C9.61538 5.79438 8.51332 4.69231 7.15385 4.69231C5.79438 4.69231 4.69231 5.79438 4.69231 7.15385C4.69231 8.51332 5.79438 9.61538 7.15385 9.61538Z" stroke="#707070" stroke-width="1.5" stroke-linecap="round" stroke-linejoin="round"/>
<path d="M13.3077 7.15385C13.3077 12.6923 7.15385 17 7.15385 17C7.15385 17 1 12.6923 1 7.15385C1 5.52174 1.64835 3.95649 2.80242 2.80242C3.95649 1.64835 5.52174 1 7.15385 1C8.78595 1 10.3512 1.64835 11.5053 2.80242C12.6593 3.95649 13.3077 5.52174 13.3077 7.15385Z" stroke="#707070" stroke-width="1.5" stroke-linecap="round" stroke-linejoin="round"/>
</svg>
